<?xml version="1.0" encoding="UTF-8" standalone="no"?>
<!-- Created with Inkscape (http://www.inkscape.org/) -->

<svg
   version="1.1"
   id="svg16"
   width="674.32562"
   height="477.67068"
   viewBox="0 0 674.32562 477.67068"
   sodipodi:docname="fig_block_diagram.svg"
   inkscape:version="1.4.2 (f4327f4, 2025-05-13)"
   xmlns:inkscape="http://www.inkscape.org/namespaces/inkscape"
   xmlns:sodipodi="http://sodipodi.sourceforge.net/DTD/sodipodi-0.dtd"
   xmlns="http://www.w3.org/2000/svg"
   xmlns:svg="http://www.w3.org/2000/svg">
  <defs
     id="defs20">
    <clipPath
       clipPathUnits="userSpaceOnUse"
       id="clipPath28">
      <path
         d="M 0,0 H 612 V 792 H 0 Z"
         id="path26" />
    </clipPath>
  </defs>
  <sodipodi:namedview
     id="namedview18"
     pagecolor="#ffffff"
     bordercolor="#000000"
     borderopacity="0.25"
     inkscape:showpageshadow="2"
     inkscape:pageopacity="0.0"
     inkscape:pagecheckerboard="0"
     inkscape:deskcolor="#d1d1d1"
     showgrid="false"
     inkscape:zoom="1.976257"
     inkscape:cx="708.4099"
     inkscape:cy="270.46078"
     inkscape:window-width="3440"
     inkscape:window-height="1351"
     inkscape:window-x="-9"
     inkscape:window-y="-9"
     inkscape:window-maximized="1"
     inkscape:current-layer="g24">
    <inkscape:page
       x="0"
       y="0"
       id="page22"
       width="674.32562"
       height="477.67068"
       margin="0"
       bleed="0" />
  </sodipodi:namedview>
  <g
     id="g24"
     inkscape:groupmode="layer"
     inkscape:label="Page 1"
     transform="matrix(1.3333333,0,0,-1.3333333,-81.4544,833.74533)"
     clip-path="url(#clipPath28)">
    <path
       d="M 221.07731,332.04 H 545.81999 V 531.96 H 221.07731 Z"
       style="fill:#80ffff;fill-opacity:1;fill-rule:nonzero;stroke:none;stroke-width:1"
       id="path36"
       inkscape:export-filename="fig_block_diagram.pdf"
       inkscape:export-xdpi="96"
       inkscape:export-ydpi="96" />
    <path
       d="m 229.71107,448.50001 h 307.40895 v 5.65845 H 229.71107 Z"
       style="fill:#000000;fill-opacity:1;fill-rule:nonzero;stroke:none;stroke-width:0.999995"
       id="path42" />
    <text
       xml:space="preserve"
       transform="scale(1,-1)"
       style="font-variant:normal;font-weight:normal;font-stretch:normal;font-size:9.96px;font-family:'Times New Roman';-inkscape-font-specification:TimesNewRomanPSMT;writing-mode:lr-tb;fill:#000000;fill-opacity:1;fill-rule:nonzero;stroke:none"
       id="text56"
       x="487.31989"
       y="-569.40009"><tspan
         x="487.31989 493.4194 498.41336 503.40729 507.84351 512.88324 516.7218 519.54346 524.5235"
         y="-569.40009"
         sodipodi:role="line"
         id="tspan52">Expansion</tspan><tspan
         x="498.42032 503.39136 508.43109 511.73883 514.56049"
         y="-556.20013"
         sodipodi:role="line"
         id="tspan54">ports</tspan></text>
    <g
       id="g58"
       transform="translate(508.44,541.59495)">
      <path
         d="M 0,0 H -2.22 L -2.04,0.66 -0.48,6 0,7.68 0.48,6 1.98,0.66 2.16,0 H 1.5 L 1.02,0.36 -0.48,5.7 0.48,6 V 5.7 l -1.56,-5.34 -0.96,0.3 0.48,0.36 H 0"
         style="fill:#000000;fill-opacity:1;fill-rule:nonzero;stroke:none"
         id="path60" />
    </g>
    <path
       d="m 508.44,541.59495 h 1.5 v 1.02 h -1.5 z"
       style="fill:#000000;fill-opacity:1;fill-rule:nonzero;stroke:none"
       id="path62" />
    <g
       id="g64"
       transform="translate(508.44,542.07495)">
      <path
         d="M 0,0 H -1.56 L 0,5.34 1.5,0"
         style="fill:#000000;fill-opacity:1;fill-rule:evenodd;stroke:none"
         id="path66" />
    </g>
    <g
       id="g68"
       transform="translate(508.44,521.85495)">
      <path
         d="M 0,0 H 2.16 L 1.98,-0.66 0.48,-6.06 0,-7.74 -0.48,-6.06 -2.04,-0.66 -2.22,0 h 0.66 l 0.48,-0.36 1.56,-5.4 -0.96,-0.3 v 0.3 l 1.5,5.4 0.96,-0.3 L 1.5,-1.02 H 0"
         style="fill:#000000;fill-opacity:1;fill-rule:nonzero;stroke:none"
         id="path70" />
    </g>
    <path
       d="m 506.88,520.83495 h 1.56 v 1.02 h -1.56 z"
       style="fill:#000000;fill-opacity:1;fill-rule:nonzero;stroke:none"
       id="path72" />
    <g
       id="g74"
       transform="translate(508.44,521.37495)">
      <path
         d="M 0,0 H 1.5 L 0,-5.4 -1.56,0"
         style="fill:#000000;fill-opacity:1;fill-rule:evenodd;stroke:none"
         id="path76" />
    </g>
    <path
       d="m 508.14,541.53495 h 0.59998 v 0.29999 H 508.14 Z"
       style="fill:#000000;fill-opacity:1;fill-rule:nonzero;stroke:none"
       id="path78" />
    <path
       d="m 508.14,521.55495 h 0.59998 v 19.98 H 508.14 Z"
       style="fill:#000000;fill-opacity:1;fill-rule:nonzero;stroke:none"
       id="path80" />
    <path
       d="M 216.00064,592.8 H 552.78 v 0.59998 H 216.00064 Z"
       style="fill:#000000;fill-opacity:1;fill-rule:nonzero;stroke:none;stroke-width:0.999995"
       id="path82" />
    <path
       d="m 552.18,268.14 h 0.60004 V 593.1 H 552.18 Z"
       style="fill:#000000;fill-opacity:1;fill-rule:nonzero;stroke:none"
       id="path84" />
    <path
       d="m 216.08016,268.14 h 336.39985 v 0.60001 H 216.08016 Z"
       style="fill:#000000;fill-opacity:1;fill-rule:nonzero;stroke:none;stroke-width:1"
       id="path86" />
    <path
       d="m 215.76,268.44 h 0.59999 V 593.4 H 215.76 Z"
       style="fill:#000000;fill-opacity:1;fill-rule:nonzero;stroke:none"
       id="path88" />
    <text
       xml:space="preserve"
       transform="scale(1,-1)"
       style="font-variant:normal;font-weight:normal;font-stretch:normal;font-size:8.7px;font-family:'Times New Roman';-inkscape-font-specification:TimesNewRomanPSMT;writing-mode:lr-tb;fill:#000000;fill-opacity:1;fill-rule:nonzero;stroke:none"
       id="text94"
       x="370.09189"
       y="-485.19836"><tspan
         x="370.09189"
         y="-485.19836"
         sodipodi:role="line"
         id="tspan90">MAX 10</tspan><tspan
         x="370.09189 374.95084 379.80978 386.04855"
         y="-473.91797"
         sodipodi:role="line"
         id="tspan92">FPGA</tspan></text>
    <path
       d="m 346.62,433.14 h 0.60001 V 448.5 H 346.62 Z"
       style="fill:#000000;fill-opacity:1;fill-rule:nonzero;stroke:none"
       id="path234" />
    <path
       d="m 330.3,396.78 h 33.54 v 36.66 H 330.3 Z"
       style="fill:#ffffff;fill-opacity:1;fill-rule:nonzero;stroke:none"
       id="path236" />
    <path
       d="m 330.3,432.66 h 34.32 v 1.5 H 330.3 Z"
       style="fill:#000000;fill-opacity:1;fill-rule:nonzero;stroke:none"
       id="path238" />
    <path
       d="m 363.12,396 h 1.5 v 37.44 h -1.5 z"
       style="fill:#000000;fill-opacity:1;fill-rule:nonzero;stroke:none"
       id="path240" />
    <path
       d="m 329.58,396 h 34.26 v 1.5 h -34.26 z"
       style="fill:#000000;fill-opacity:1;fill-rule:nonzero;stroke:none"
       id="path242" />
    <path
       d="m 329.58,396.78 h 1.5 v 37.38 h -1.5 z"
       style="fill:#000000;fill-opacity:1;fill-rule:nonzero;stroke:none"
       id="path244" />
    <text
       xml:space="preserve"
       transform="scale(1,-1)"
       style="font-variant:normal;font-weight:normal;font-stretch:normal;font-size:9.96px;font-family:'Times New Roman';-inkscape-font-specification:TimesNewRomanPSMT;writing-mode:lr-tb;fill:#000000;fill-opacity:1;fill-rule:nonzero;stroke:none"
       id="text250"
       x="328.44"
       y="-412.44"><tspan
         x="328.44"
         sodipodi:role="line"
         id="tspan246"
         y="-412.44" /><tspan
         x="246.83971 252.35855"
         y="-298.38007"
         sodipodi:role="line"
         id="tspan248">SW</tspan></text>
    <text
       xml:space="preserve"
       transform="scale(1,-1)"
       style="font-variant:normal;font-weight:normal;font-stretch:normal;font-size:7.98px;font-family:'Times New Roman';-inkscape-font-specification:TimesNewRomanPSMT;writing-mode:lr-tb;fill:#000000;fill-opacity:1;fill-rule:nonzero;stroke:none"
       id="text254"
       x="261.84"
       y="-295.85999"><tspan
         x="261.84 265.79968 268.4993"
         y="-295.85999"
         sodipodi:role="line"
         id="tspan252">9-0</tspan></text>
    <text
       xml:space="preserve"
       transform="matrix(1,0,0,-1,296.82,303.54)"
       style="font-variant:normal;font-weight:normal;font-stretch:normal;font-size:9.96px;font-family:'Times New Roman';-inkscape-font-specification:TimesNewRomanPSMT;writing-mode:lr-tb;fill:#000000;fill-opacity:1;fill-rule:nonzero;stroke:none"
       id="text258"><tspan
         x="0 6.137352 12.199008 19.441919"
         y="0"
         sodipodi:role="line"
         id="tspan256">LEDR</tspan></text>
    <text
       xml:space="preserve"
       transform="matrix(1,0,0,-1,322.92,301.08)"
       style="font-variant:normal;font-weight:normal;font-stretch:normal;font-size:7.98px;font-family:'Times New Roman';-inkscape-font-specification:TimesNewRomanPSMT;writing-mode:lr-tb;fill:#000000;fill-opacity:1;fill-rule:nonzero;stroke:none"
       id="text262"><tspan
         x="0 3.959676 6.6593099"
         y="0"
         sodipodi:role="line"
         id="tspan260">9-0</tspan></text>
    <g
       id="g264"
       transform="translate(311.82,323.88)">
      <path
         d="M 0,0 H 2.22 L 2.04,-0.66 0.48,-6.06 0,-7.74 -0.48,-6.06 -2.04,-0.66 -2.22,0 h 0.66 l 0.48,-0.36 1.56,-5.4 -0.96,-0.3 v 0.3 l 1.56,5.4 0.96,-0.3 -0.48,-0.36 H 0"
         style="fill:#000000;fill-opacity:1;fill-rule:nonzero;stroke:none"
         id="path266" />
    </g>
    <path
       d="m 310.26,322.86 h 1.56 v 1.02 h -1.56 z"
       style="fill:#000000;fill-opacity:1;fill-rule:nonzero;stroke:none"
       id="path268" />
    <g
       id="g270"
       transform="translate(311.82,323.4)">
      <path
         d="M 0,0 H 1.56 L 0,-5.4 -1.56,0"
         style="fill:#000000;fill-opacity:1;fill-rule:evenodd;stroke:none"
         id="path272" />
    </g>
    <path
       d="m 311.52,349.44 h 0.60001 v 0.29999 H 311.52 Z"
       style="fill:#000000;fill-opacity:1;fill-rule:nonzero;stroke:none"
       id="path274" />
    <path
       d="m 311.52,323.58 h 0.60001 v 25.86 H 311.52 Z"
       style="fill:#000000;fill-opacity:1;fill-rule:nonzero;stroke:none"
       id="path276" />
    <g
       id="g278"
       transform="translate(262.38,339.9)">
      <path
         d="M 0,0 H -2.22 L -2.04,0.66 -0.48,6 0,7.62 0.48,6 2.04,0.66 2.22,0 H 1.56 L 1.08,0.36 -0.48,5.7 0.48,6 V 5.7 l -1.56,-5.34 -0.96,0.3 0.48,0.36 H 0"
         style="fill:#000000;fill-opacity:1;fill-rule:nonzero;stroke:none"
         id="path280" />
    </g>
    <path
       d="m 262.38,339.9 h 1.56 v 1.02 h -1.56 z"
       style="fill:#000000;fill-opacity:1;fill-rule:nonzero;stroke:none"
       id="path282" />
    <g
       id="g284"
       transform="translate(262.38,340.38)">
      <path
         d="M 0,0 H -1.56 L 0,5.34 1.56,0"
         style="fill:#000000;fill-opacity:1;fill-rule:evenodd;stroke:none"
         id="path286" />
    </g>
    <path
       d="m 262.08,339.84 h 0.60001 v 0.29999 H 262.08 Z"
       style="fill:#000000;fill-opacity:1;fill-rule:nonzero;stroke:none"
       id="path288" />
    <path
       d="m 262.08,312.18 h 0.60001 v 27.66 H 262.08 Z"
       style="fill:#000000;fill-opacity:1;fill-rule:nonzero;stroke:none"
       id="path290" />
    <path
       d="m 262.08,366.78 h 0.60001 V 448.5 H 262.08 Z"
       style="fill:#000000;fill-opacity:1;fill-rule:nonzero;stroke:none"
       id="path294" />
    <path
       d="m 312.54,366.9 h 0.60001 v 81.6 H 312.54 Z"
       style="fill:#000000;fill-opacity:1;fill-rule:nonzero;stroke:none"
       id="path298" />
    <path
       d="m 242.52,347.52 h 39.6 v 36.96 h -39.6 z"
       style="fill:#ffffff;fill-opacity:1;fill-rule:nonzero;stroke:none"
       id="path300" />
    <path
       d="m 242.52,383.7 h 40.38 v 1.5 h -40.38 z"
       style="fill:#000000;fill-opacity:1;fill-rule:nonzero;stroke:none"
       id="path302" />
    <path
       d="m 281.4,346.74 h 1.5 v 37.74 h -1.5 z"
       style="fill:#000000;fill-opacity:1;fill-rule:nonzero;stroke:none"
       id="path304" />
    <path
       d="m 241.8,346.74 h 40.32 v 1.5 H 241.8 Z"
       style="fill:#000000;fill-opacity:1;fill-rule:nonzero;stroke:none"
       id="path306" />
    <path
       d="m 241.8,347.52 h 1.5 v 37.68 h -1.5 z"
       style="fill:#000000;fill-opacity:1;fill-rule:nonzero;stroke:none"
       id="path308" />
    <path
       d="m 292.44,347.52 h 39.6 v 36.96 h -39.6 z"
       style="fill:#ffffff;fill-opacity:1;fill-rule:nonzero;stroke:none"
       id="path310" />
    <path
       d="m 292.44,383.7 h 40.38 v 1.5 h -40.38 z"
       style="fill:#000000;fill-opacity:1;fill-rule:nonzero;stroke:none"
       id="path312" />
    <path
       d="m 331.32,346.74 h 1.5 v 37.74 h -1.5 z"
       style="fill:#000000;fill-opacity:1;fill-rule:nonzero;stroke:none"
       id="path314" />
    <path
       d="m 291.72,346.74 h 40.32 v 1.5 h -40.32 z"
       style="fill:#000000;fill-opacity:1;fill-rule:nonzero;stroke:none"
       id="path316" />
    <path
       d="m 291.72,347.52 h 1.5 v 37.68 h -1.5 z"
       style="fill:#000000;fill-opacity:1;fill-rule:nonzero;stroke:none"
       id="path318" />
    <text
       xml:space="preserve"
       transform="matrix(1,0,0,-1,247.14,370.08)"
       style="font-variant:normal;font-weight:normal;font-stretch:normal;font-size:9.96px;font-family:'Times New Roman';-inkscape-font-specification:TimesNewRomanPSMT;writing-mode:lr-tb;fill:#000000;fill-opacity:1;fill-rule:nonzero;stroke:none"
       id="text334"><tspan
         x="0 5.54772 9.9799204 13.30656 17.73876 20.517599 23.29644 27.72864"
         y="0"
         sodipodi:role="line"
         id="tspan320">Parallel</tspan><tspan
         x="5.2797961 10.311588 15.291588 18.660061 21.421968"
         y="11.16018"
         sodipodi:role="line"
         id="tspan322">ports</tspan><tspan
         x="49.379688 54.946331 59.397457 62.743019 67.124428 69.922188 72.719955 77.171074"
         y="0"
         sodipodi:role="line"
         id="tspan324">Parallel</tspan><tspan
         x="54.659485 59.699245 64.679245 67.978989 70.800659"
         y="11.16018"
         sodipodi:role="line"
         id="tspan326">ports</tspan><tspan
         x="41.999329 49.243237 55.304893 62.548801 67.528801 70.89827 78.096359 84.234711 91.4328"
         y="81.71981"
         sodipodi:role="line"
         id="tspan328">HEX5-HEX0</tspan><tspan
         x="47.578918 52.568878 55.895519 61.443241 65.875443 70.915199 78.657104 83.08931 88.079269"
         y="94.439728"
         sodipodi:role="line"
         id="tspan330">7-Segment</tspan><tspan
         x="-0.60158402 6.6114478 12.71892"
         y="84.419968"
         sodipodi:role="line"
         id="tspan332">KEY</tspan></text>
    <text
       xml:space="preserve"
       transform="scale(1,-1)"
       style="font-variant:normal;font-weight:normal;font-stretch:normal;font-size:7.98px;font-family:'Times New Roman';-inkscape-font-specification:TimesNewRomanPSMT;writing-mode:lr-tb;fill:#000000;fill-opacity:1;fill-rule:nonzero;stroke:none"
       id="text338"
       x="267.06"
       y="-283.14001"><tspan
         x="267.06 271.08032 273.72012"
         y="-283.14001"
         sodipodi:role="line"
         id="tspan336">3-0</tspan></text>
    <path
       d="m 508.38,369.18 h 0.60001 V 448.5 H 508.38 Z"
       style="fill:#000000;fill-opacity:1;fill-rule:nonzero;stroke:none"
       id="path342" />
    <path
       d="m 451.26,448.5 h 0.60001 v 0.29999 H 451.26 Z"
       style="fill:#000000;fill-opacity:1;fill-rule:nonzero;stroke:none"
       id="path344" />
    <path
       d="m 380.76,357.6 h 0.60001 v 90.9 H 380.76 Z"
       style="fill:#000000;fill-opacity:1;fill-rule:nonzero;stroke:none"
       id="path346" />
    <path
       d="M 360.18,286.2 H 402 v 36.12 h -41.82 z"
       style="fill:#ffffff;fill-opacity:1;fill-rule:nonzero;stroke:none"
       id="path348" />
    <path
       d="m 360.18,321.54 h 42.6 v 1.5 h -42.6 z"
       style="fill:#000000;fill-opacity:1;fill-rule:nonzero;stroke:none"
       id="path350" />
    <path
       d="m 401.28,285.42 h 1.5 v 36.9 h -1.5 z"
       style="fill:#000000;fill-opacity:1;fill-rule:nonzero;stroke:none"
       id="path352" />
    <path
       d="M 359.46,285.42 H 402 v 1.5 h -42.54 z"
       style="fill:#000000;fill-opacity:1;fill-rule:nonzero;stroke:none"
       id="path354" />
    <path
       d="m 359.46,286.2 h 1.5 v 36.84 h -1.5 z"
       style="fill:#000000;fill-opacity:1;fill-rule:nonzero;stroke:none"
       id="path356" />
    <path
       d="M 360.18,347.52 H 402 v 36.96 h -41.82 z"
       style="fill:#ffffff;fill-opacity:1;fill-rule:nonzero;stroke:none"
       id="path358" />
    <path
       d="m 360.18,383.7 h 42.6 v 1.5 h -42.6 z"
       style="fill:#000000;fill-opacity:1;fill-rule:nonzero;stroke:none"
       id="path360" />
    <path
       d="m 401.28,346.74 h 1.5 v 37.74 h -1.5 z"
       style="fill:#000000;fill-opacity:1;fill-rule:nonzero;stroke:none"
       id="path362" />
    <path
       d="M 359.46,346.74 H 402 v 1.5 h -42.54 z"
       style="fill:#000000;fill-opacity:1;fill-rule:nonzero;stroke:none"
       id="path364" />
    <path
       d="m 359.46,347.52 h 1.5 v 37.68 h -1.5 z"
       style="fill:#000000;fill-opacity:1;fill-rule:nonzero;stroke:none"
       id="path366" />
    <text
       xml:space="preserve"
       transform="scale(1,-1)"
       style="font-variant:normal;font-weight:normal;font-stretch:normal;font-size:9.96px;font-family:'Times New Roman';-inkscape-font-specification:TimesNewRomanPSMT;writing-mode:lr-tb;fill:#000000;fill-opacity:1;fill-rule:nonzero;stroke:none"
       id="text372"
       x="363.72"
       y="-369.29999"><tspan
         x="363.72 369.25378 376.51163 383.15097 390.3381"
         y="-369.29999"
         sodipodi:role="line"
         id="tspan368">SDRAM</tspan><tspan
         x="373.43997 378.4339 383.42786 386.75848"
         y="-358.37985"
         sodipodi:role="line"
         id="tspan370">port</tspan></text>
    <path
       d="m 380.76,348 h 0.60001 v 0.29999 H 380.76 Z"
       style="fill:#000000;fill-opacity:1;fill-rule:nonzero;stroke:none"
       id="path374" />
    <path
       d="m 380.76,322.02 h 0.60001 V 348 H 380.76 Z"
       style="fill:#000000;fill-opacity:1;fill-rule:nonzero;stroke:none"
       id="path376" />
    <text
       xml:space="preserve"
       transform="scale(1,-1)"
       style="font-variant:normal;font-weight:normal;font-stretch:normal;font-size:9.96px;font-family:'Times New Roman';-inkscape-font-specification:TimesNewRomanPSMT;writing-mode:lr-tb;fill:#000000;fill-opacity:1;fill-rule:nonzero;stroke:none"
       id="text382"
       x="363.29999"
       y="-306.42001"><tspan
         x="363.29999 368.85568 376.06473 382.72598 389.93503"
         y="-306.42001"
         sodipodi:role="line"
         id="tspan378">SDRAM</tspan><tspan
         x="372.48013 376.93326 381.94412 384.74387"
         y="-295.38034"
         sodipodi:role="line"
         id="tspan380">chip</tspan></text>
    <g
       id="g384"
       transform="translate(508.68,339.9)">
      <path
         d="M 0,0 H -2.16 L -1.98,0.66 -0.48,6 0,7.62 0.48,6 2.04,0.66 2.22,0 H 1.56 L 1.08,0.36 -0.48,5.7 0.48,6 V 5.7 l -1.5,-5.34 -0.96,0.3 0.48,0.36 H 0"
         style="fill:#000000;fill-opacity:1;fill-rule:nonzero;stroke:none"
         id="path386" />
    </g>
    <path
       d="m 508.68,339.9 h 1.56 v 1.02 h -1.56 z"
       style="fill:#000000;fill-opacity:1;fill-rule:nonzero;stroke:none"
       id="path388" />
    <g
       id="g390"
       transform="translate(508.68,340.38)">
      <path
         d="M 0,0 H -1.5 L 0,5.34 1.56,0"
         style="fill:#000000;fill-opacity:1;fill-rule:evenodd;stroke:none"
         id="path392" />
    </g>
    <g
       id="g394"
       transform="translate(508.68,320.16)">
      <path
         d="M 0,0 H 2.22 L 2.04,-0.66 0.48,-6.06 0,-7.8 -0.48,-6.06 -1.98,-0.66 -2.16,0 h 0.66 l 0.48,-0.36 1.5,-5.4 -0.96,-0.3 v 0.3 l 1.56,5.4 0.96,-0.3 -0.48,-0.36 H 0"
         style="fill:#000000;fill-opacity:1;fill-rule:nonzero;stroke:none"
         id="path396" />
    </g>
    <path
       d="m 507.18,319.14 h 1.5 v 1.02 h -1.5 z"
       style="fill:#000000;fill-opacity:1;fill-rule:nonzero;stroke:none"
       id="path398" />
    <g
       id="g400"
       transform="translate(508.68,319.68)">
      <path
         d="M 0,0 H 1.56 L 0,-5.4 -1.5,0"
         style="fill:#000000;fill-opacity:1;fill-rule:evenodd;stroke:none"
         id="path402" />
    </g>
    <path
       d="m 508.38,319.86 h 0.60001 v 20.28 H 508.38 Z"
       style="fill:#000000;fill-opacity:1;fill-rule:nonzero;stroke:none"
       id="path404" />
    <text
       xml:space="preserve"
       transform="scale(1,-1)"
       style="font-variant:normal;font-weight:normal;font-stretch:normal;font-size:9.96px;font-family:'Times New Roman';-inkscape-font-specification:TimesNewRomanPSMT;writing-mode:lr-tb;fill:#000000;fill-opacity:1;fill-rule:nonzero;stroke:none"
       id="text408"
       x="479.31497"
       y="-299.40009"><tspan
         x="479.31497"
         y="-299.40009"
         sodipodi:role="line"
         id="tspan406">Accelerometer</tspan></text>
    <path
       d="m 450.9,396.78 h 37.5 v 36.12 h -37.5 z"
       style="fill:#ffffff;fill-opacity:1;fill-rule:nonzero;stroke:none"
       id="path410" />
    <path
       d="m 450.9,432.12 h 38.28 v 1.5 H 450.9 Z"
       style="fill:#000000;fill-opacity:1;fill-rule:nonzero;stroke:none"
       id="path412" />
    <path
       d="m 487.68,396 h 1.5 v 36.9 h -1.5 z"
       style="fill:#000000;fill-opacity:1;fill-rule:nonzero;stroke:none"
       id="path414" />
    <path
       d="m 450.18,396 h 38.22 v 1.5 h -38.22 z"
       style="fill:#000000;fill-opacity:1;fill-rule:nonzero;stroke:none"
       id="path416" />
    <path
       d="m 450.18,396.78 h 1.5 v 36.84 h -1.5 z"
       style="fill:#000000;fill-opacity:1;fill-rule:nonzero;stroke:none"
       id="path418" />
    <text
       xml:space="preserve"
       transform="scale(1,-1)"
       style="font-variant:normal;font-weight:normal;font-stretch:normal;font-size:9.96px;font-family:'Times New Roman';-inkscape-font-specification:TimesNewRomanPSMT;writing-mode:lr-tb;fill:#000000;fill-opacity:1;fill-rule:nonzero;stroke:none"
       id="text424"
       x="453.23999"
       y="-417.29999"><tspan
         x="453.23999 460.43411 465.47388 468.79355 473.21875 478.20175 481.02341"
         y="-417.29999"
         sodipodi:role="line"
         id="tspan420">On-chip</tspan><tspan
         x="452.94022 460.73392 465.20096 472.99466 477.97467 481.27441"
         y="-406.19958"
         sodipodi:role="line"
         id="tspan422">memory</tspan></text>
    <path
       d="m 469.32,432.6 h 0.60001 v 19.98 H 469.32 Z"
       style="fill:#000000;fill-opacity:1;fill-rule:nonzero;stroke:none"
       id="path426" />
    <path
       d="m 508.14,453.9 h 0.59998 v 25.12893 H 508.14 Z"
       style="fill:#000000;fill-opacity:1;fill-rule:nonzero;stroke:none;stroke-width:1"
       id="path428" />
    <path
       d="m 275.34,567.72 h 0.59999 v 18.6 H 275.34 Z"
       style="fill:#000000;fill-opacity:1;fill-rule:nonzero;stroke:none"
       id="path482" />
    <path
       d="m 329.1,449.52 h 0.60001 v 18.96 H 329.1 Z"
       style="fill:#000000;fill-opacity:1;fill-rule:nonzero;stroke:none"
       id="path484" />
    <path
       d="m 437.94,451.98 h 0.60001 V 479.1 H 437.94 Z"
       style="fill:#000000;fill-opacity:1;fill-rule:nonzero;stroke:none"
       id="path486" />
    <path
       d="m 275.22,451.98 h 0.60001 V 553.26 H 275.22 Z"
       style="fill:#000000;fill-opacity:1;fill-rule:nonzero;stroke:none"
       id="path488" />
    <text
       xml:space="preserve"
       transform="scale(1,-1)"
       style="font-variant:normal;font-weight:normal;font-stretch:normal;font-size:9.96px;font-family:'Times New Roman';-inkscape-font-specification:TimesNewRomanPSMT;writing-mode:lr-tb;fill:#000000;fill-opacity:1;fill-rule:nonzero;stroke:none"
       id="text492"
       x="319.53165"
       y="-616.62"><tspan
         x="319.53165 326.73175 331.7207 335.60413 338.38196 340.88092 345.31213 350.30109 358.10275 363.09171 368.08069 370.90234 375.33356"
         y="-616.62"
         sodipodi:role="line"
         id="tspan490">Host computer</tspan></text>
    <path
       d="m 253.38,544.74 h 44.28 v 28.5 h -44.28 z"
       style="fill:#ffffff;fill-opacity:1;fill-rule:nonzero;stroke:none"
       id="path494" />
    <path
       d="m 253.38,572.46 h 45.06 v 1.5 h -45.06 z"
       style="fill:#000000;fill-opacity:1;fill-rule:nonzero;stroke:none"
       id="path496" />
    <path
       d="m 296.94,543.96 h 1.5 v 29.28 h -1.5 z"
       style="fill:#000000;fill-opacity:1;fill-rule:nonzero;stroke:none"
       id="path498" />
    <path
       d="m 252.66,543.96 h 45 v 1.5 h -45 z"
       style="fill:#000000;fill-opacity:1;fill-rule:nonzero;stroke:none"
       id="path500" />
    <path
       d="m 252.66,544.74 h 1.5 v 29.22 h -1.5 z"
       style="fill:#000000;fill-opacity:1;fill-rule:nonzero;stroke:none"
       id="path502" />
    <text
       xml:space="preserve"
       transform="scale(1,-1)"
       style="font-variant:normal;font-weight:normal;font-stretch:normal;font-size:9.96px;font-family:'Times New Roman';-inkscape-font-specification:TimesNewRomanPSMT;writing-mode:lr-tb;fill:#000000;fill-opacity:1;fill-rule:nonzero;stroke:none"
       id="text508"
       x="265.32001"
       y="-562.79999"><tspan
         x="265.32001 272.57785 278.09668"
         y="-562.79999"
         sodipodi:role="line"
         id="tspan504">USB</tspan><tspan
         x="260.87985 267.53412 270.31396 274.74713 278.63254 281.41238 285.84558"
         y="-549.84003"
         sodipodi:role="line"
         id="tspan506">Blaster</tspan></text>
    <g
       id="g512"
       transform="translate(274.77165,596.88)">
      <path
         d="m 0,0 v -0.72 l 1.5,-0.06 v 0.72"
         style="fill:#4d4d4d;fill-opacity:1;fill-rule:nonzero;stroke:none"
         id="path514" />
    </g>
    <g
       id="g516"
       transform="translate(274.77165,596.88)">
      <path
         d="M 0,0 0.06,1.92 V 1.86 L 0,3.96 V 4.02 L -0.06,8.28 V 8.22 l -0.06,2.1 c 0.099,2.761 -0.099,6.712 1.38,9.18 l 0.18,0.24 -0.06,-0.12 0.12,0.24 0.12,0.24 0.18,0.18 0.12,0.06 0.24,0.18 -0.12,-0.06 0.18,0.18 0.6,0.3 L 3.06,21 2.94,20.94 3.3,21.12 3.54,21.18 H 4.5 L 5.1,21.06 H 5.04 L 5.4,21 H 5.52 L 5.88,20.88 6.36,20.64 H 6.3 l 0.42,-0.18 h 0.06 l 0.84,-0.48 0.12,-0.06 0.42,-0.3 0.48,-0.36 H 8.58 L 9.12,18.9 h 0.06 l 0.48,-0.36 v -0.06 l 0.66,-0.54 -0.06,0.06 0.6,-0.42 0.66,-0.42 0.6,-0.42 -0.06,0.06 -0.66,-1.32 -0.12,0.06 -0.6,0.42 0.06,-0.06 -0.66,0.42 -0.06,0.06 -0.6,0.42 H 9.36 L 8.7,17.34 H 8.76 L 8.28,17.7 V 17.64 L 7.74,18 v 0.06 L 7.26,18.42 6.84,18.72 6.9,18.66 6.06,19.14 6.12,19.08 5.7,19.26 v 0.06 L 5.34,19.5 5.4,19.44 5.04,19.56 5.16,19.5 4.8,19.56 4.2,19.68 H 4.32 3.72 L 3.9,19.74 3.66,19.68 3.84,19.74 3.6,19.62 3.42,19.56 3.18,19.5 3.36,19.56 3.12,19.44 3.3,19.56 3.06,19.32 2.82,19.14 2.88,19.2 2.7,19.02 2.82,19.2 2.64,18.84 2.46,18.6 2.52,18.72 2.1,17.88 2.16,18 1.98,17.34 V 17.4 L 1.8,16.68 1.62,15.9 1.68,16.02 1.62,15.18 V 15.12 L 1.5,14.22 v 0.06 L 1.44,13.32 v 0.06 -1.02 L 1.38,10.32 v 0.06 L 1.44,8.28 1.5,4.02 1.56,1.92 V 1.86 L 1.5,-0.06"
         style="fill:#4d4d4d;fill-opacity:1;fill-rule:nonzero;stroke:none"
         id="path518" />
    </g>
    <g
       id="g520"
       transform="translate(286.83165,613.68)">
      <path
         d="M 0,0 1.8,-0.9 H 1.74 l 0.6,-0.24 -0.06,0.06 0.6,-0.18 0.54,-0.18 H 3.36 l 0.6,-0.12 H 3.9 L 4.44,-1.62 H 4.5 L 5.04,-1.74 H 4.86 5.52 L 6.06,-1.8 H 5.94 6.48 6.42 l 0.54,0.06 0.48,0.06 0.54,0.06 H 7.86 L 8.34,-1.5 H 8.4 l 0.54,0.12 H 8.88 l 0.48,0.12 -0.06,-0.06 1.92,0.72 h -0.06 l 1.92,0.96 -0.06,-0.06 2.7,1.62 1.8,1.14 H 17.46 L 18.3,3.6 h 0.06 l 0.9,0.54 V 4.2 l 0.84,0.48 c 2.656,1.32 4.568,2.112 7.56,1.74 h 0.06 L 27.36,4.98 27.42,4.92 27,4.98 h 0.12 -1.8 0.12 L 24.96,4.92 25.08,4.98 24.24,4.74 H 24.18 L 23.28,4.5 H 23.4 L 22.5,4.14 21.66,3.78 21.72,3.84 20.82,3.36 19.98,2.88 h 0.06 L 19.14,2.34 C 15.085,-0.191 10.851,-3.309 5.88,-3.3 L 5.34,-3.24 H 5.4 4.86 L 4.74,-3.18 4.2,-3.06 4.26,-3.12 3.72,-3.06 H 3.66 L 3.06,-2.94 2.94,-2.88 2.4,-2.7 h 0.06 l -0.6,0.18 c -0.485,0.073 -1.463,0.731 -1.92,0.9 l -0.6,0.3"
         style="fill:#4d4d4d;fill-opacity:1;fill-rule:nonzero;stroke:none"
         id="path522" />
    </g>
    <g
       id="g524"
       transform="translate(314.55165,620.1)">
      <path
         d="M 0,0 0.48,-0.12 0.12,-1.56 -0.36,-1.44"
         style="fill:#4d4d4d;fill-opacity:1;fill-rule:nonzero;stroke:none"
         id="path526" />
    </g>
    <g
       id="g528"
       transform="translate(315.51165,619.86)">
      <path
         d="M 0,0 0.72,-0.18 0.36,-1.62 -0.36,-1.44"
         style="fill:#4d4d4d;fill-opacity:1;fill-rule:nonzero;stroke:none"
         id="path530" />
    </g>
    <g
       id="g532"
       transform="translate(315.03165,619.98)">
      <path
         d="m 0,0 -0.36,-1.44 0.48,-0.12 0.36,1.44"
         style="fill:#4d4d4d;fill-opacity:1;fill-rule:nonzero;stroke:none"
         id="path534" />
    </g>
    <path
       d="m 272.07165,586.38 h 7.5 v 10.5 h -7.5 z"
       style="fill:#b3b3b3;fill-opacity:1;fill-rule:nonzero;stroke:none"
       id="path536" />
    <path
       d="m 279.27165,586.08 h 0.60001 v 10.8 h -0.60001 z"
       style="fill:#000000;fill-opacity:1;fill-rule:nonzero;stroke:none"
       id="path538" />
    <path
       d="m 271.77165,586.08 h 7.8 v 0.60004 h -7.8 z"
       style="fill:#000000;fill-opacity:1;fill-rule:nonzero;stroke:none"
       id="path540" />
    <path
       d="m 271.77165,586.38 h 0.60001 v 10.8 h -0.60001 z"
       style="fill:#000000;fill-opacity:1;fill-rule:nonzero;stroke:none"
       id="path542" />
    <path
       d="m 272.07165,596.58 h 7.8 v 0.60004 h -7.8 z"
       style="fill:#000000;fill-opacity:1;fill-rule:nonzero;stroke:none"
       id="path544" />
    <path
       d="m 437.94,494.7 h 0.60001 v 94.2 H 437.94 Z"
       style="fill:#000000;fill-opacity:1;fill-rule:nonzero;stroke:none"
       id="path546" />
    <path
       d="m 416.7,541.74 h 43.14 v 28.5 H 416.7 Z"
       style="fill:#ffffff;fill-opacity:1;fill-rule:nonzero;stroke:none"
       id="path548" />
    <path
       d="m 416.7,569.46 h 43.92 v 1.5 H 416.7 Z"
       style="fill:#000000;fill-opacity:1;fill-rule:nonzero;stroke:none"
       id="path550" />
    <path
       d="m 459.12,540.96 h 1.5 v 29.28 h -1.5 z"
       style="fill:#000000;fill-opacity:1;fill-rule:nonzero;stroke:none"
       id="path552" />
    <path
       d="m 415.98,540.96 h 43.86 v 1.5 h -43.86 z"
       style="fill:#000000;fill-opacity:1;fill-rule:nonzero;stroke:none"
       id="path554" />
    <path
       d="m 415.98,541.74 h 1.5 v 29.22 h -1.5 z"
       style="fill:#000000;fill-opacity:1;fill-rule:nonzero;stroke:none"
       id="path556" />
    <text
       xml:space="preserve"
       transform="scale(1,-1)"
       style="font-variant:normal;font-weight:normal;font-stretch:normal;font-size:9.96px;font-family:'Times New Roman';-inkscape-font-specification:TimesNewRomanPSMT;writing-mode:lr-tb;fill:#000000;fill-opacity:1;fill-rule:nonzero;stroke:none"
       id="text562"
       x="427.62"
       y="-559.79999"><tspan
         x="427.62 434.81808 442.07596"
         y="-559.79999"
         sodipodi:role="line"
         id="tspan558">VGA</tspan><tspan
         x="427.9198 435.11789 442.31598"
         y="-546.84003"
         sodipodi:role="line"
         id="tspan560">DAC</tspan></text>
    <path
       d="m 429.72,591.66 h 17.04 v 6.18 h -17.04 z"
       style="fill:#b3b3b3;fill-opacity:1;fill-rule:nonzero;stroke:none"
       id="path564" />
    <path
       d="m 429.72,597.54 h 17.34 v 0.59998 h -17.34 z"
       style="fill:#000000;fill-opacity:1;fill-rule:nonzero;stroke:none"
       id="path566" />
    <path
       d="m 446.46,591.36 h 0.60001 v 6.48 H 446.46 Z"
       style="fill:#000000;fill-opacity:1;fill-rule:nonzero;stroke:none"
       id="path568" />
    <path
       d="m 429.42,591.36 h 17.34 v 0.60004 h -17.34 z"
       style="fill:#000000;fill-opacity:1;fill-rule:nonzero;stroke:none"
       id="path570" />
    <path
       d="m 429.42,591.66 h 0.59998 v 6.48 H 429.42 Z"
       style="fill:#000000;fill-opacity:1;fill-rule:nonzero;stroke:none"
       id="path572" />
    <path
       d="m 424.26,591.3 h 27.96 v 1.5 h -27.96 z"
       style="fill:#000000;fill-opacity:1;fill-rule:nonzero;stroke:none"
       id="path574" />
    <path
       d="m 424.26,592.5 h 28.26 v 0.60004 h -28.26 z"
       style="fill:#000000;fill-opacity:1;fill-rule:nonzero;stroke:none"
       id="path576" />
    <path
       d="m 451.92,591 h 0.59998 v 1.8 H 451.92 Z"
       style="fill:#000000;fill-opacity:1;fill-rule:nonzero;stroke:none"
       id="path578" />
    <path
       d="m 423.96,591 h 28.26 v 0.60004 h -28.26 z"
       style="fill:#000000;fill-opacity:1;fill-rule:nonzero;stroke:none"
       id="path580" />
    <path
       d="m 423.96,591.3 h 0.60001 v 1.8 H 423.96 Z"
       style="fill:#000000;fill-opacity:1;fill-rule:nonzero;stroke:none"
       id="path582" />
    <path
       d="m 429.9,587.52 h 16.68 v 3.78 H 429.9 Z"
       style="fill:#000000;fill-opacity:1;fill-rule:nonzero;stroke:none"
       id="path584" />
    <path
       d="m 429.9,591 h 16.98 v 0.60004 H 429.9 Z"
       style="fill:#000000;fill-opacity:1;fill-rule:nonzero;stroke:none"
       id="path586" />
    <path
       d="m 446.28,587.22 h 0.60001 v 4.08 H 446.28 Z"
       style="fill:#000000;fill-opacity:1;fill-rule:nonzero;stroke:none"
       id="path588" />
    <path
       d="m 429.6,587.22 h 16.98 v 0.59998 H 429.6 Z"
       style="fill:#000000;fill-opacity:1;fill-rule:nonzero;stroke:none"
       id="path590" />
    <path
       d="m 429.6,587.52 h 0.60001 v 4.08 H 429.6 Z"
       style="fill:#000000;fill-opacity:1;fill-rule:nonzero;stroke:none"
       id="path592" />
    <path
       d="m 416.7,476.58 h 43.14 v 37.5 H 416.7 Z"
       style="fill:#ffffff;fill-opacity:1;fill-rule:nonzero;stroke:none"
       id="path658" />
    <path
       d="m 416.7,513.3 h 43.92 v 1.5 H 416.7 Z"
       style="fill:#000000;fill-opacity:1;fill-rule:nonzero;stroke:none"
       id="path660" />
    <path
       d="m 459.12,475.8 h 1.5 v 38.28 h -1.5 z"
       style="fill:#000000;fill-opacity:1;fill-rule:nonzero;stroke:none"
       id="path662" />
    <path
       d="m 415.98,475.8 h 43.86 v 1.5 h -43.86 z"
       style="fill:#000000;fill-opacity:1;fill-rule:nonzero;stroke:none"
       id="path664" />
    <path
       d="m 415.98,476.58 h 1.5 v 38.22 h -1.5 z"
       style="fill:#000000;fill-opacity:1;fill-rule:nonzero;stroke:none"
       id="path666" />
    <text
       xml:space="preserve"
       transform="scale(1,-1)"
       style="font-variant:normal;font-weight:normal;font-stretch:normal;font-size:9.96px;font-family:'Times New Roman';-inkscape-font-specification:TimesNewRomanPSMT;writing-mode:lr-tb;fill:#000000;fill-opacity:1;fill-rule:nonzero;stroke:none"
       id="text672"
       x="418.26001"
       y="-497.88"><tspan
         x="418.26001 424.91827 427.68018 432.66516 437.09238 442.13214 445.43188 450.41687 455.4566"
         y="-497.88"
         sodipodi:role="line"
         id="tspan668">Video-out</tspan><tspan
         x="430.20004 435.17108 440.21085 443.51855"
         y="-486.77957"
         sodipodi:role="line"
         id="tspan670">port</tspan></text>
    <path
       d="M 259.51963,495.18 H 306.9 v 0.60001 h -47.38037 z"
       style="fill:#000000;fill-opacity:1;fill-rule:nonzero;stroke:none;stroke-width:0.999998"
       id="path750" />
    <path
       d="m 494.82,347.52 h 26.34 v 36.96 h -26.34 z"
       style="fill:#ffffff;fill-opacity:1;fill-rule:nonzero;stroke:none"
       id="path784" />
    <path
       d="m 494.82,383.7 h 27.12 v 1.5 h -27.12 z"
       style="fill:#000000;fill-opacity:1;fill-rule:nonzero;stroke:none"
       id="path786" />
    <path
       d="m 520.44,346.74 h 1.5 v 37.74 h -1.5 z"
       style="fill:#000000;fill-opacity:1;fill-rule:nonzero;stroke:none"
       id="path788" />
    <path
       d="m 494.1,346.74 h 27.06 v 1.5 H 494.1 Z"
       style="fill:#000000;fill-opacity:1;fill-rule:nonzero;stroke:none"
       id="path790" />
    <path
       d="m 494.1,347.52 h 1.5 v 37.68 h -1.5 z"
       style="fill:#000000;fill-opacity:1;fill-rule:nonzero;stroke:none"
       id="path792" />
    <text
       xml:space="preserve"
       transform="scale(1,-1)"
       style="font-variant:normal;font-weight:normal;font-stretch:normal;font-size:9.96px;font-family:'Times New Roman';-inkscape-font-specification:TimesNewRomanPSMT;writing-mode:lr-tb;fill:#000000;fill-opacity:1;fill-rule:nonzero;stroke:none"
       id="text796"
       x="500.34"
       y="-365.88"><tspan
         x="500.34 505.90964 510.92151 514.27008"
         y="-365.88"
         sodipodi:role="line"
         id="tspan794">Port</tspan></text>
    <path
       d="m 256.56,476.58 h 39.06 v 37.5 h -39.06 z"
       style="fill:#ffffff;fill-opacity:1;fill-rule:nonzero;stroke:none"
       id="path798" />
    <path
       d="m 256.56,513.3 h 39.84 v 1.5 h -39.84 z"
       style="fill:#000000;fill-opacity:1;fill-rule:nonzero;stroke:none"
       id="path800" />
    <path
       d="m 294.9,475.8 h 1.5 v 38.28 h -1.5 z"
       style="fill:#000000;fill-opacity:1;fill-rule:nonzero;stroke:none"
       id="path802" />
    <path
       d="m 255.84,475.8 h 39.78 v 1.5 h -39.78 z"
       style="fill:#000000;fill-opacity:1;fill-rule:nonzero;stroke:none"
       id="path804" />
    <path
       d="m 255.84,476.58 h 1.5 v 38.22 h -1.5 z"
       style="fill:#000000;fill-opacity:1;fill-rule:nonzero;stroke:none"
       id="path806" />
    <text
       xml:space="preserve"
       transform="scale(1,-1)"
       style="font-variant:normal;font-weight:normal;font-stretch:normal;font-size:9.96px;font-family:'Times New Roman';-inkscape-font-specification:TimesNewRomanPSMT;writing-mode:lr-tb;fill:#000000;fill-opacity:1;fill-rule:nonzero;stroke:none"
       id="text812"
       x="264.84"
       y="-497.88"><tspan
         x="264.84 268.73038 274.07193 281.27899"
         y="-497.88"
         sodipodi:role="line"
         id="tspan808">JTAG</tspan><tspan
         x="266.69955 271.68552 276.67148 279.99414 282.76898"
         y="-486.77957"
         sodipodi:role="line"
         id="tspan810">ports</tspan></text>
    <path
       d="m 488.1,476.52 h 39.6 v 36.96 h -39.6 z"
       style="fill:#ffffff;fill-opacity:1;fill-rule:nonzero;stroke:none"
       id="path814" />
    <path
       d="m 488.1,512.7 h 40.38 v 1.5 H 488.1 Z"
       style="fill:#000000;fill-opacity:1;fill-rule:nonzero;stroke:none"
       id="path816" />
    <path
       d="m 526.98,475.74 h 1.5 v 37.74 h -1.5 z"
       style="fill:#000000;fill-opacity:1;fill-rule:nonzero;stroke:none"
       id="path818" />
    <path
       d="m 487.38,475.74 h 40.32 v 1.5 h -40.32 z"
       style="fill:#000000;fill-opacity:1;fill-rule:nonzero;stroke:none"
       id="path820" />
    <path
       d="m 487.38,476.52 h 1.5 v 37.68 h -1.5 z"
       style="fill:#000000;fill-opacity:1;fill-rule:nonzero;stroke:none"
       id="path822" />
    <text
       xml:space="preserve"
       transform="scale(1,-1)"
       style="font-variant:normal;font-weight:normal;font-stretch:normal;font-size:9.96px;font-family:'Times New Roman';-inkscape-font-specification:TimesNewRomanPSMT;writing-mode:lr-tb;fill:#000000;fill-opacity:1;fill-rule:nonzero;stroke:none"
       id="text828"
       x="492.65991"
       y="-499.08002"><tspan
         x="492.65991 498.22156 502.66772 505.96747 510.40863 513.20142 515.9942 520.44031"
         y="-499.08002"
         sodipodi:role="line"
         id="tspan824">Parallel</tspan><tspan
         x="497.9397 502.92566 507.91162 511.23431 514.00916"
         y="-487.91983"
         sodipodi:role="line"
         id="tspan826">ports</tspan></text>
    <path
       d="m 307.02,468.42 h 44.7 v 54.06 h -44.7 z"
       style="fill:#ffffff;fill-opacity:1;fill-rule:nonzero;stroke:none"
       id="path902" />
    <path
       d="m 307.02,521.7 h 45.48 v 1.5 h -45.48 z"
       style="fill:#000000;fill-opacity:1;fill-rule:nonzero;stroke:none"
       id="path904" />
    <path
       d="m 351,467.64 h 1.5 v 54.84 H 351 Z"
       style="fill:#000000;fill-opacity:1;fill-rule:nonzero;stroke:none"
       id="path906" />
    <path
       d="m 306.3,467.64 h 45.42 v 1.5 H 306.3 Z"
       style="fill:#000000;fill-opacity:1;fill-rule:nonzero;stroke:none"
       id="path908" />
    <path
       d="m 306.3,468.42 h 1.5 v 54.78 h -1.5 z"
       style="fill:#000000;fill-opacity:1;fill-rule:nonzero;stroke:none"
       id="path910" />
    <text
       xml:space="preserve"
       transform="scale(1,-1)"
       style="font-variant:normal;font-weight:normal;font-stretch:normal;font-size:9.96px;font-family:'Times New Roman';-inkscape-font-specification:TimesNewRomanPSMT;writing-mode:lr-tb;fill:#000000;fill-opacity:1;fill-rule:nonzero;stroke:none"
       id="text916"
       x="317.16"
       y="-493.98001"><tspan
         x="317.16"
         sodipodi:role="line"
         id="tspan914"
         y="-493.98001">Nios V </tspan></text>
    <path
       d="m 287.07982,444.52534 h 0.60001 v 0.29999 h -0.60001 z"
       style="fill:#000000;fill-opacity:1;fill-rule:nonzero;stroke:none;stroke-width:1"
       id="path230-9" />
    <path
       d="m 287.07982,433.52999 h 0.60001 V 448.89 h -0.60001 z"
       style="fill:#000000;fill-opacity:1;fill-rule:nonzero;stroke:none;stroke-width:1"
       id="path232-7" />
    <g
       id="g1755"
       transform="translate(-0.16083554,1.30397)">
      <path
         d="m 270.92065,395.86603 h 33.54 v 36.66 h -33.54 z"
         style="fill:#ffffff;fill-opacity:1;fill-rule:nonzero;stroke:none"
         id="path234-5" />
      <path
         d="m 270.92065,431.74603 h 34.32 v 1.5 h -34.32 z"
         style="fill:#000000;fill-opacity:1;fill-rule:nonzero;stroke:none"
         id="path236-3" />
      <path
         d="m 303.74065,395.08603 h 1.5 v 37.44 h -1.5 z"
         style="fill:#000000;fill-opacity:1;fill-rule:nonzero;stroke:none"
         id="path238-9" />
      <path
         d="m 270.20065,395.08603 h 34.26 v 1.5 h -34.26 z"
         style="fill:#000000;fill-opacity:1;fill-rule:nonzero;stroke:none"
         id="path240-0" />
      <path
         d="m 270.20065,395.86603 h 1.5 v 37.38 h -1.5 z"
         style="fill:#000000;fill-opacity:1;fill-rule:nonzero;stroke:none"
         id="path242-5" />
      <text
         xml:space="preserve"
         transform="scale(1,-1)"
         style="font-variant:normal;font-weight:normal;font-stretch:normal;font-size:9.96px;font-family:'Times New Roman';-inkscape-font-specification:TimesNewRomanPSMT;writing-mode:lr-tb;fill:#000000;fill-opacity:1;fill-rule:nonzero;stroke:none"
         id="text248-2"
         x="273.67386"
         y="-416.88663"><tspan
           x="273.67386"
           y="-416.88663"
           sodipodi:role="line"
           id="tspan1599">Nios V</tspan></text>
      <text
         xml:space="preserve"
         transform="scale(1,-1)"
         style="font-variant:normal;font-weight:normal;font-stretch:normal;font-size:9.96px;font-family:'Times New Roman';-inkscape-font-specification:TimesNewRomanPSMT;writing-mode:lr-tb;fill:#000000;fill-opacity:1;fill-rule:nonzero;stroke:none"
         id="text248-2-5-0"
         x="275.53162"
         y="-405.10632"><tspan
           x="275.53162"
           y="-405.10632"
           sodipodi:role="line"
           id="tspan1599-0-0">Timer</tspan></text>
    </g>
    <g
       id="g1766"
       transform="translate(4.5)">
      <path
         d="m 325.8,396.78 h 33.54 v 36.66 H 325.8 Z"
         style="fill:#ffffff;fill-opacity:1;fill-rule:nonzero;stroke:none"
         id="path234-9" />
      <path
         d="m 325.8,432.66 h 34.32 v 1.5 H 325.8 Z"
         style="fill:#000000;fill-opacity:1;fill-rule:nonzero;stroke:none"
         id="path236-0" />
      <path
         d="m 358.62,396 h 1.5 v 37.44 h -1.5 z"
         style="fill:#000000;fill-opacity:1;fill-rule:nonzero;stroke:none"
         id="path238-93" />
      <path
         d="m 325.08,396 h 34.26 v 1.5 h -34.26 z"
         style="fill:#000000;fill-opacity:1;fill-rule:nonzero;stroke:none"
         id="path240-4" />
      <path
         d="m 325.08,396.78 h 1.5 v 37.38 h -1.5 z"
         style="fill:#000000;fill-opacity:1;fill-rule:nonzero;stroke:none"
         id="path242-0" />
      <text
         xml:space="preserve"
         transform="scale(1,-1)"
         style="font-variant:normal;font-weight:normal;font-stretch:normal;font-size:9.96px;font-family:'Times New Roman';-inkscape-font-specification:TimesNewRomanPSMT;writing-mode:lr-tb;fill:#000000;fill-opacity:1;fill-rule:nonzero;stroke:none"
         id="text248-2-5"
         x="328.44135"
         y="-406.51605"><tspan
           x="328.44135"
           y="-406.51605"
           sodipodi:role="line"
           id="tspan1599-0">Timers</tspan></text>
      <text
         xml:space="preserve"
         transform="scale(1,-1)"
         style="font-variant:normal;font-weight:normal;font-stretch:normal;font-size:9.96px;font-family:'Times New Roman';-inkscape-font-specification:TimesNewRomanPSMT;writing-mode:lr-tb;fill:#000000;fill-opacity:1;fill-rule:nonzero;stroke:none"
         id="text248-2-5-6"
         x="329.59149"
         y="-418.56952"><tspan
           x="329.59149"
           y="-418.56952"
           sodipodi:role="line"
           id="tspan1599-0-2">FPGA</tspan></text>
    </g>
    <path
       d="m 418.18081,448.759 h 0.60001 v 0.29999 h -0.60001 z"
       style="fill:#000000;fill-opacity:1;fill-rule:nonzero;stroke:none"
       id="path296" />
    <path
       d="m 431.32081,358.459 h 0.60001 v 90.6 h -0.60001 z"
       style="fill:#000000;fill-opacity:1;fill-rule:nonzero;stroke:none"
       id="path962" />
    <g
       id="g964"
       transform="translate(430.96081,340.159)">
      <path
         d="M 0,0 H -2.16 L -1.98,0.66 -0.48,6 0,7.62 0.48,6 2.04,0.66 2.22,0 H 1.56 L 1.08,0.36 -0.48,5.7 0.48,6 V 5.7 l -1.5,-5.34 -0.96,0.3 0.48,0.36 H 0"
         style="fill:#000000;fill-opacity:1;fill-rule:nonzero;stroke:none"
         id="path966" />
    </g>
    <path
       d="m 430.96081,340.159 h 1.56 v 1.02 h -1.56 z"
       style="fill:#000000;fill-opacity:1;fill-rule:nonzero;stroke:none"
       id="path968" />
    <g
       id="g970"
       transform="translate(430.96081,340.639)">
      <path
         d="M 0,0 H -1.5 L 0,5.34 1.56,0"
         style="fill:#000000;fill-opacity:1;fill-rule:evenodd;stroke:none"
         id="path972" />
    </g>
    <path
       d="m 430.66081,300.259 h 0.60001 v 40.14 h -0.60001 z"
       style="fill:#000000;fill-opacity:1;fill-rule:nonzero;stroke:none"
       id="path974" />
    <text
       xml:space="preserve"
       transform="scale(1,-1)"
       style="font-variant:normal;font-weight:normal;font-stretch:normal;font-size:9.96px;font-family:'Times New Roman';-inkscape-font-specification:TimesNewRomanPSMT;writing-mode:lr-tb;fill:#000000;fill-opacity:1;fill-rule:nonzero;stroke:none"
       id="text978"
       x="421.12082"
       y="-288.61899"><tspan
         x="421.12082 428.37866 435.57675"
         y="-288.61899"
         sodipodi:role="line"
         id="tspan976">ADC</tspan></text>
    <path
       d="m 418.06081,347.779 h 26.4 v 36.96 h -26.4 z"
       style="fill:#ffffff;fill-opacity:1;fill-rule:nonzero;stroke:none"
       id="path980" />
    <path
       d="m 418.06081,383.959 h 27.18 v 1.5 h -27.18 z"
       style="fill:#000000;fill-opacity:1;fill-rule:nonzero;stroke:none"
       id="path982" />
    <path
       d="m 443.74081,346.999 h 1.5 v 37.74 h -1.5 z"
       style="fill:#000000;fill-opacity:1;fill-rule:nonzero;stroke:none"
       id="path984" />
    <path
       d="m 417.34081,346.999 h 27.12 v 1.5 h -27.12 z"
       style="fill:#000000;fill-opacity:1;fill-rule:nonzero;stroke:none"
       id="path986" />
    <path
       d="m 417.34081,347.779 h 1.5 v 37.68 h -1.5 z"
       style="fill:#000000;fill-opacity:1;fill-rule:nonzero;stroke:none"
       id="path988" />
    <text
       xml:space="preserve"
       transform="scale(1,-1)"
       style="font-variant:normal;font-weight:normal;font-stretch:normal;font-size:9.96px;font-family:'Times New Roman';-inkscape-font-specification:TimesNewRomanPSMT;writing-mode:lr-tb;fill:#000000;fill-opacity:1;fill-rule:nonzero;stroke:none"
       id="text994"
       x="423.64081"
       y="-366.13901"><tspan
         x="423.64081"
         y="-366.13901"
         sodipodi:role="line"
         id="tspan992">Port</tspan></text>
  </g>
</svg>
